<?xml version="1.0" encoding="iso-8859-1"?>
<svg xmlns="http://www.w3.org/2000/svg" xmlns:xlink="http://www.w3.org/1999/xlink" version="1.1" viewBox="0 0 489 489" enable-background="new 0 0 489 489" width="512px" height="512px">
  <g>
    <g>
      <path d="m409.75,285.4v-143.6c0-2.2-0.5-4.1-1.4-5.6l-51.7-129.9c-1-3.1-5.2-6.3-9.4-6.3h-284.6c-4.2,0-7.3,2.1-9.4,6.3l-51.8,129.9c-0.9,1.6-1.4,3.5-1.4,5.6v252.3c0,6.3 4.2,10.4 10.4,10.4h273.8c8.8,48 50.9,84.5 101.5,84.5 57,0 103.2-46.2 103.2-103.2 0.1-48.8-33.7-89.6-79.2-100.4zm-155.3-265.5h85.5l44.8,111.5h-130.3v-111.5zm-78.2-0h58.4v111.5h-58.4v-111.5-7.10543e-15zm0,132.4h58.4v67.7h-58.4v-67.7zm-106.3-132.4h84.4v111.5h-128.2l43.8-111.5zm212.6,363.8h-261.6v-231.4h133.4v78.2c0,6.3 4.2,10.4 10.4,10.4h79.2c6.3,0 10.4-5.2 10.4-10.4v-78.2h134.5v130.4c-1,0-2.1-0.1-3.1-0.1-56.3,0-102.1,45.1-103.2,101.1zm103.3,83.6c-45,0-81.5-36.5-81.5-81.5s36.5-81.5 81.5-81.5 81.5,36.5 81.5,81.5-36.5,81.5-81.5,81.5z" fill="#FFFFFF"/>
      <polygon points="396.25,337.8 375.35,337.8 375.35,375.4 336.85,375.4 336.85,396.2 375.35,396.2 375.35,434.8 396.25,434.8     396.25,396.2 434.75,396.2 434.75,375.4 396.25,375.4   " fill="#FFFFFF"/>
    </g>
  </g>
</svg>
