<?xml version="1.0" encoding="utf-8"?>
<!-- Generator: Adobe Illustrator 22.1.0, SVG Export Plug-In . SVG Version: 6.00 Build 0)  -->
<svg version="1.1" id="Capa_1" xmlns="http://www.w3.org/2000/svg" xmlns:xlink="http://www.w3.org/1999/xlink" x="0px" y="0px"
	 viewBox="0 0 512 512" style="enable-background:new 0 0 512 512;" xml:space="preserve">
<style type="text/css">
	.st0{fill:#FFFFFF;}
</style>
<g>
	<g>
		<path class="st0" d="M459.1,216.9c-2.9-1.1-6.2-0.3-8.3,2l-64.1,72.1c-2,2.2-2.4,5.4-1.2,8.1c1.2,2.7,3.9,4.4,6.8,4.4h12.2
			c-9.3,17.5-32.7,53.3-75.9,73.7c-7.5,3.6-16,3.1-23.2-1.2c-7.2-4.3-11.5-11.5-11.9-19.9l-9.6-196.9h44.3c8.6,0,15.5-7,15.5-15.5
			v-32.1c0-4.1-3.4-7.5-7.5-7.5s-7.5,3.4-7.5,7.5v0.5h-47.1l-1.2-23.8c14.2-8.5,23.2-24.1,23.2-40.9C303.6,21.3,282.2,0,256,0
			s-47.6,21.3-47.6,47.6c0,16.7,9,32.3,23.2,40.9l-1.2,23.8h-47.1v-0.5c0-4.1-3.4-7.5-7.5-7.5s-7.5,3.4-7.5,7.5v32.1
			c0,8.6,7,15.5,15.5,15.5h44.3l-0.4,8.1c-0.2,4.1,3,7.7,7.1,7.9c0.1,0,0.2,0,0.4,0c4,0,7.3-3.1,7.5-7.1l0.4-8.8h25.6l9.6,197.7
			c0.6,13.2,7.8,25.2,19.2,32c11.4,6.8,25.3,7.5,37.3,1.9c64-30.2,87.5-89.5,88.4-92c0.9-2.3,0.6-4.9-0.8-6.9s-3.7-3.3-6.2-3.3H409
			l39.9-44.9V308l-3.5-4.7c-1.7-2.3-4.6-3.4-7.4-2.9c-2.8,0.5-5.1,2.7-5.8,5.4c-20.8,78.4-69,109.7-115.5,140
			c-19.3,12.5-37.7,24.5-53.1,39.3v-92.9c0-4.1-3.4-7.5-7.5-7.5s-7.5,3.4-7.5,7.5v92.9c-15.4-14.8-33.8-26.8-53.1-39.3
			c-46.6-30.3-94.7-61.6-115.5-140c-0.7-2.8-3-4.9-5.8-5.4c-2.8-0.5-5.7,0.6-7.4,2.9l-3.5,4.7v-64.3l39.9,44.9h-7.3
			c-2.5,0-4.8,1.2-6.2,3.3s-1.7,4.6-0.8,6.9c1,2.5,24.4,61.8,88.4,92c12,5.7,25.9,5,37.3-1.9c11.4-6.8,18.5-18.8,19.2-32l7.7-158.6
			c0.2-4.1-3-7.7-7.1-7.9c-4.1-0.2-7.7,3-7.9,7.1l-7.7,158.6c-0.4,8.3-4.8,15.6-11.9,19.9c-7.2,4.3-15.6,4.7-23.2,1.2
			c-43.2-20.4-66.6-56.2-75.9-73.7h12.2c3,0,5.6-1.7,6.8-4.4c1.2-2.7,0.7-5.8-1.2-8.1L61.2,219c-2.1-2.3-5.4-3.1-8.3-2
			c-2.9,1.1-4.8,3.9-4.8,7v106.5c0,3.2,2.1,6.1,5.1,7.1c3.1,1,6.4,0,8.4-2.6l8.1-10.8c24.3,73.6,73.7,105.7,117.6,134.3
			c24.2,15.7,47,30.6,62.8,50.7c1.4,1.8,3.6,2.9,5.9,2.9s4.5-1.1,5.9-2.9c15.9-20.2,38.7-35,62.8-50.7
			c43.9-28.5,93.3-60.6,117.6-134.3l8.1,10.8c1.9,2.6,5.3,3.6,8.4,2.6c3.1-1,5.1-3.9,5.1-7.1V223.9C463.9,220.8,462,218,459.1,216.9
			z M223.4,47.6c0-18,14.6-32.6,32.6-32.6s32.6,14.6,32.6,32.6c0,10.4-5,20.1-13.2,26.2c-4.5-5.9-11.5-9.6-19.4-9.6
			s-14.9,3.8-19.4,9.6C228.5,67.7,223.4,57.9,223.4,47.6z M266.5,112.2h-21l1.2-24.2c0.2-5,4.3-8.9,9.3-8.9s9.1,3.9,9.3,8.9
			L266.5,112.2z M183.9,144.3c-0.3,0-0.5-0.2-0.5-0.5v-16.5h145.3v16.5c0,0.3-0.2,0.5-0.5,0.5H183.9z"/>
	</g>
</g>
<g>
	<g>
		<path class="st0" d="M256,336.7c-4.1,0-7.5,3.4-7.5,7.5v16c0,4.1,3.4,7.5,7.5,7.5s7.5-3.4,7.5-7.5v-16
			C263.5,340,260.1,336.7,256,336.7z"/>
	</g>
</g>
</svg>
