<?xml version="1.0" encoding="iso-8859-1"?>
<!-- Generator: Adobe Illustrator 19.0.0, SVG Export Plug-In . SVG Version: 6.00 Build 0)  -->
<svg xmlns="http://www.w3.org/2000/svg" xmlns:xlink="http://www.w3.org/1999/xlink" version="1.1" id="Capa_1" x="0px" y="0px" viewBox="0 0 480 480" style="enable-background:new 0 0 480 480;" xml:space="preserve" width="512px" height="512px">
<g>
	<g>
		<rect x="71.997" y="144" width="48" height="16" fill="#FFFFFF"/>
	</g>
</g>
<g>
	<g>
		<rect x="175.997" y="144" width="48" height="16" fill="#FFFFFF"/>
	</g>
</g>
<g>
	<g>
		<rect x="279.997" y="144" width="40" height="16" fill="#FFFFFF"/>
	</g>
</g>
<g>
	<g>
		<rect x="367.997" y="144" width="48" height="16" fill="#FFFFFF"/>
	</g>
</g>
<g>
	<g>
		<rect x="71.997" y="184" width="48" height="16" fill="#FFFFFF"/>
	</g>
</g>
<g>
	<g>
		<rect x="175.997" y="184" width="48" height="16" fill="#FFFFFF"/>
	</g>
</g>
<g>
	<g>
		<rect x="279.997" y="184" width="40" height="16" fill="#FFFFFF"/>
	</g>
</g>
<g>
	<g>
		<rect x="367.997" y="184" width="48" height="16" fill="#FFFFFF"/>
	</g>
</g>
<g>
	<g>
		<path d="M235.637,309.192c1.144-3.024,4.072-5.192,7.496-5.192c4.408,0,8,3.592,8,8h16c0-10.416-6.712-19.216-16-22.528V280h-16    v9.472c-9.288,3.312-16,12.112-16,22.528c0,2.12,0.84,4.16,2.344,5.656l29.152,29.152c-1.144,3.024-4.072,5.192-7.496,5.192    c-4.408,0-8-3.592-8-8h-16c0,10.416,6.712,19.216,16,22.528V376h16v-9.472c9.288-3.312,16-12.112,16-22.528    c0-2.12-0.84-4.16-2.344-5.656L235.637,309.192z" fill="#FFFFFF"/>
	</g>
</g>
<g>
	<g>
		<rect x="331.117" y="304" width="80" height="16" fill="#FFFFFF"/>
	</g>
</g>
<g>
	<g>
		<rect x="339.117" y="352" width="88" height="16" fill="#FFFFFF"/>
	</g>
</g>
<g>
	<g>
		<rect x="75.133" y="304" width="80" height="16" fill="#FFFFFF"/>
	</g>
</g>
<g>
	<g>
		<rect x="59.133" y="352" width="88" height="16" fill="#FFFFFF"/>
	</g>
</g>
<g>
	<g>
		<rect x="399.997" y="32" width="16" height="32" fill="#FFFFFF"/>
	</g>
</g>
<g>
	<g>
		<rect x="367.997" y="32" width="16" height="32" fill="#FFFFFF"/>
	</g>
</g>
<g>
	<g>
		<rect x="335.997" y="32" width="16" height="32" fill="#FFFFFF"/>
	</g>
</g>
<g>
	<g>
		<rect x="303.997" y="32" width="16" height="32" fill="#FFFFFF"/>
	</g>
</g>
<g>
	<g>
		<rect x="71.997" y="32" width="32" height="16" fill="#FFFFFF"/>
	</g>
</g>
<g>
	<g>
		<rect x="71.997" y="64" width="72" height="16" fill="#FFFFFF"/>
	</g>
</g>
<g>
	<g>
		<path d="M476.445,436.016l-1.28-12.816c-0.024-0.208-0.136-0.384-0.176-0.592l-18.992-175.04V40c0-22.056-17.944-40-40-40h-352    c-22.056,0-40,17.944-40,40v207.568L5.013,422.616c-0.04,0.208-0.152,0.376-0.176,0.584l-1.28,12.816    c-1.128,11.224,2.576,22.456,10.144,30.816C21.261,475.2,32.077,480,43.357,480h393.28c11.28,0,22.096-4.8,29.664-13.168    C473.869,458.472,477.565,447.24,476.445,436.016z M39.997,40c0-13.232,10.768-24,24-24h352c13.232,0,24,10.768,24,24v56h-400V40z     M39.997,112h400v128h-400V112z M39.173,256h401.64l17.352,160H21.821L39.173,256z M454.437,456.104    c-4.608,5.088-10.936,7.896-17.8,7.896H43.357c-6.864,0-13.184-2.808-17.8-7.896c-4.608-5.088-6.768-11.656-6.08-18.488    l0.008-0.064l0.6-5.552h439.824l0.608,5.616C461.197,444.448,459.037,451.016,454.437,456.104z" fill="#FFFFFF"/>
	</g>
</g>
<g>
</g>
<g>
</g>
<g>
</g>
<g>
</g>
<g>
</g>
<g>
</g>
<g>
</g>
<g>
</g>
<g>
</g>
<g>
</g>
<g>
</g>
<g>
</g>
<g>
</g>
<g>
</g>
<g>
</g>
</svg>
