<?xml version="1.0" encoding="UTF-8"?>
<!DOCTYPE svg PUBLIC "-//W3C//DTD SVG 1.1//EN" "http://www.w3.org/Graphics/SVG/1.1/DTD/svg11.dtd">
<!-- Creator: CorelDRAW 2017 -->
<svg xmlns="http://www.w3.org/2000/svg" xml:space="preserve" width="290mm" height="31mm" version="1.1" style="shape-rendering:geometricPrecision; text-rendering:geometricPrecision; image-rendering:optimizeQuality; fill-rule:evenodd; clip-rule:evenodd"
viewBox="0 0 29000 3100"
 xmlns:xlink="http://www.w3.org/1999/xlink">
 <defs>
  <style type="text/css">
   <![CDATA[
    .fil1 {fill:#29A0CB;fill-rule:nonzero}
    .fil0 {fill:#999999;fill-rule:nonzero}
   ]]>
  </style>
 </defs>
 <g id="Слой_x0020_1">
  <metadata id="CorelCorpID_0Corel-Layer"/>
  <g id="_2246990596144">
   <path class="fil0" d="M2280 2984c176,-186 265,-422 265,-712 0,-309 -92,-560 -275,-751 364,132 545,374 545,728 0,173 -51,328 -152,465 -102,135 -229,225 -382,270zm-143 -1624c117,-154 174,-336 174,-548 0,-167 -32,-317 -97,-449 -68,-136 -145,-227 -232,-273 189,40 334,122 436,244 101,124 152,263 152,415 0,135 -42,262 -126,381 -84,115 -186,192 -307,230zm-1534 -1318l0 3023c-167,6 -368,18 -603,35l0 -52c245,-68 368,-327 368,-779l0 -1498c0,-399 -123,-638 -368,-718l0 -52c199,23 400,36 603,41zm734 1564l-287 0 0 515c0,361 39,589 118,684 67,52 168,77 301,77 224,0 383,-65 479,-194 91,-130 137,-282 137,-456 0,-139 -29,-258 -89,-358 -61,-101 -137,-172 -229,-212 -97,-38 -240,-57 -429,-57zm-287 -785l0 579 221 0c183,0 324,-50 424,-150 99,-100 149,-244 149,-432 0,-194 -54,-342 -160,-444 -108,-100 -235,-150 -384,-150 -82,0 -149,21 -198,61 -34,104 -52,282 -52,536zm-235 2244l0 -3023 490 -41c243,0 436,75 579,226 142,154 213,349 213,585 0,296 -128,510 -385,640 414,94 620,363 620,806 0,223 -68,419 -204,587 -137,170 -360,255 -665,255 -113,0 -235,-8 -367,-24 -119,-8 -213,-12 -281,-12zm5291 0l-1451 -3023 281 0c38,98 92,221 161,370 77,163 121,260 129,290 10,17 19,37 26,60l674 1400c236,486 486,781 753,885l0 53c-261,-24 -452,-35 -574,-35zm-2050 -1447l867 0 -417 -872 -451 872zm1226 752l-256 -534 -1083 0 -273 534c0,0 -5,12 -14,37 -2,2 -17,29 -43,83 -41,80 -61,163 -61,247 0,145 80,248 241,310l0 53c-32,0 -89,-5 -170,-15 -113,-14 -215,-21 -304,-21 -82,0 -184,6 -305,18 -82,12 -137,18 -164,18l0 -53c211,-107 402,-328 574,-664l954 -1856c-73,-147 -172,-261 -300,-341 -127,-80 -276,-124 -447,-132l0 -53 101 0c89,0 213,6 370,18 165,16 272,24 321,24l1451 3023c-186,4 -410,16 -669,35l0 -53c145,-25 218,-103 218,-235 0,-98 -47,-245 -143,-442zm2059 695l2230 -3023 278 0 -2069 2811 921 0c362,0 618,-59 771,-177 148,-115 262,-262 342,-441l66 0c-4,84 -39,232 -106,445 -64,201 -99,341 -107,420 -258,-23 -493,-34 -706,-34l-1621 0zm1963 -3023l-2224 3023 -281 0 2077 -2811 -1004 0c-314,0 -536,35 -665,106 -132,73 -232,216 -302,428l-66 0c2,-90 19,-242 49,-455 15,-104 23,-176 23,-220 0,-5 -2,-41 -6,-106 193,23 456,34 786,34l1613 0zm3969 3023l-1451 -3023 281 0c38,98 92,221 161,370 77,163 121,260 129,290 10,17 19,37 26,60l674 1400c236,486 486,781 753,885l0 53c-261,-24 -452,-35 -574,-35zm-2050 -1447l867 0 -417 -872 -451 872zm1226 752l-256 -534 -1083 0 -273 534c0,0 -5,12 -14,37 -2,2 -17,29 -43,83 -41,80 -61,163 -61,247 0,145 80,248 241,310l0 53c-32,0 -89,-5 -170,-15 -113,-14 -215,-21 -304,-21 -82,0 -184,6 -305,18 -82,12 -137,18 -164,18l0 -53c211,-107 402,-328 574,-664l954 -1856c-73,-147 -172,-261 -300,-341 -127,-80 -276,-124 -447,-132l0 -53 101 0c89,0 213,6 370,18 165,16 272,24 321,24l1451 3023c-186,4 -410,16 -669,35l0 -53c145,-25 218,-103 218,-235 0,-98 -47,-245 -143,-442zm4039 -921c124,-198 187,-416 187,-654 0,-218 -73,-435 -216,-655 329,141 494,362 494,664 0,305 -155,520 -466,645zm-1746 -1406l0 3023 -123 0c-48,0 -124,6 -226,18 -88,12 -192,18 -311,18l0 -53c123,-14 224,-74 305,-181 80,-107 121,-314 121,-620l0 -1476c0,-418 -142,-656 -425,-716l0 -53c123,16 343,29 661,41zm447 784l0 625c113,28 235,43 367,43 430,0 645,-224 645,-674 0,-420 -213,-631 -639,-631 -137,0 -244,27 -321,83 -34,77 -52,262 -52,554zm-155 2239l-83 0 0 -3023c115,0 237,-6 368,-18 149,-16 270,-24 364,-24 262,0 457,80 584,240 128,160 193,357 193,591 0,397 -168,652 -503,764 167,23 307,73 419,149 121,82 304,247 549,494 373,378 677,567 913,567 48,0 97,-17 147,-49l12 52c-77,99 -183,149 -320,149 -145,0 -297,-54 -457,-164 -149,-103 -371,-306 -668,-608 -356,-368 -702,-551 -1038,-551 208,65 490,284 845,657 251,261 452,450 604,569 153,119 299,177 439,177l0 26c-65,24 -129,35 -192,35 -186,0 -347,-47 -483,-142 -73,-51 -165,-130 -276,-236 -113,-106 -247,-243 -404,-412 -229,-245 -399,-412 -510,-500 -119,-89 -234,-153 -347,-189l0 680c0,457 138,706 414,746l0 53c-229,-24 -419,-35 -568,-35z"/>
   <path class="fil1" d="M20305 3064l-1329 0 0 -3023c130,-5 275,-15 436,-29 150,-8 219,-12 207,-12l0 53c-147,38 -252,114 -313,226 -62,117 -92,290 -92,520l0 1249c0,187 10,355 28,502 18,156 37,244 61,268 21,23 76,34 167,34l603 0c213,0 388,-33 528,-101 140,-67 263,-199 368,-396l58 0c-14,92 -57,237 -129,436 -48,127 -78,230 -92,307 -155,-23 -321,-34 -500,-34zm-2141 -3064l606 41 0 3023 -178 0c-109,0 -251,12 -427,34l0 -52c142,-55 238,-144 290,-267 52,-124 77,-324 77,-598l0 -1373c0,-293 -38,-486 -115,-580 -78,-96 -163,-155 -253,-175l0 -53zm6112 3064l-1451 -3023 281 0c38,98 92,221 161,370 77,163 121,260 129,290 10,17 19,37 26,60l674 1400c236,486 486,781 753,885l0 53c-261,-24 -452,-35 -574,-35zm-2050 -1447l867 0 -417 -872 -451 872zm1226 752l-256 -534 -1083 0 -273 534c0,0 -5,12 -14,37 -2,2 -17,29 -43,83 -41,80 -61,163 -61,247 0,145 80,248 241,310l0 53c-32,0 -89,-5 -170,-15 -113,-14 -215,-21 -304,-21 -82,0 -184,6 -305,18 -82,12 -137,18 -164,18l0 -53c211,-107 402,-328 574,-664l954 -1856c-73,-147 -172,-261 -300,-341 -127,-80 -276,-124 -447,-132l0 -53 101 0c89,0 213,6 370,18 165,16 272,24 321,24l1451 3023c-186,4 -410,16 -669,35l0 -53c145,-25 218,-103 218,-235 0,-98 -47,-245 -143,-442zm4039 -921c124,-198 187,-416 187,-654 0,-218 -73,-435 -216,-655 329,141 494,362 494,664 0,305 -155,520 -466,645zm-1746 -1406l0 3023 -123 0c-48,0 -124,6 -226,18 -88,12 -192,18 -311,18l0 -53c123,-14 224,-74 305,-181 80,-107 121,-314 121,-620l0 -1476c0,-418 -142,-656 -425,-716l0 -53c123,16 343,29 661,41zm447 784l0 625c113,28 235,43 367,43 430,0 645,-224 645,-674 0,-420 -213,-631 -639,-631 -137,0 -244,27 -321,83 -34,77 -52,262 -52,554zm-155 2239l-83 0 0 -3023c115,0 237,-6 368,-18 149,-16 270,-24 364,-24 262,0 457,80 584,240 128,160 193,357 193,591 0,397 -168,652 -503,764 167,23 307,73 419,149 121,82 304,247 549,494 373,378 677,567 913,567 48,0 97,-17 147,-49l12 52c-77,99 -183,149 -320,149 -145,0 -297,-54 -457,-164 -149,-103 -371,-306 -668,-608 -356,-368 -702,-551 -1038,-551 208,65 490,284 845,657 251,261 452,450 604,569 153,119 299,177 439,177l0 26c-65,24 -129,35 -192,35 -186,0 -347,-47 -483,-142 -73,-51 -165,-130 -276,-236 -113,-106 -247,-243 -404,-412 -229,-245 -399,-412 -510,-500 -119,-89 -234,-153 -347,-189l0 680c0,457 138,706 414,746l0 53c-229,-24 -419,-35 -568,-35z"/>
  </g>
 </g>
</svg>
