<?xml version="1.0" encoding="iso-8859-1"?>
<!-- Generator: Adobe Illustrator 19.0.0, SVG Export Plug-In . SVG Version: 6.00 Build 0)  -->
<svg xmlns="http://www.w3.org/2000/svg" xmlns:xlink="http://www.w3.org/1999/xlink" version="1.1" id="Capa_1" x="0px" y="0px" viewBox="0 0 480 480" style="enable-background:new 0 0 480 480;" xml:space="preserve" width="512px" height="512px">
<g>
	<g>
		<rect x="352" y="240" width="16" height="16" fill="#FFFFFF"/>
	</g>
</g>
<g>
	<g>
		<rect x="112" y="240" width="208" height="16" fill="#FFFFFF"/>
	</g>
</g>
<g>
	<g>
		<rect x="352" y="200" width="16" height="16" fill="#FFFFFF"/>
	</g>
</g>
<g>
	<g>
		<rect x="112" y="200" width="208" height="16" fill="#FFFFFF"/>
	</g>
</g>
<g>
	<g>
		<rect x="352" y="160" width="16" height="16" fill="#FFFFFF"/>
	</g>
</g>
<g>
	<g>
		<rect x="112" y="160" width="208" height="16" fill="#FFFFFF"/>
	</g>
</g>
<g>
	<g>
		<rect x="352" y="120" width="16" height="16" fill="#FFFFFF"/>
	</g>
</g>
<g>
	<g>
		<rect x="112" y="120" width="208" height="16" fill="#FFFFFF"/>
	</g>
</g>
<g>
	<g>
		<rect x="112" y="320" width="88" height="16" fill="#FFFFFF"/>
	</g>
</g>
<g>
	<g>
		<rect x="184" y="56" width="112" height="16" fill="#FFFFFF"/>
	</g>
</g>
<g>
	<g>
		<path d="M432,0H128c-26.499,0.026-47.974,21.501-48,48v368H8c-4.418,0-8,3.582-8,8v8c0.026,26.499,21.501,47.974,48,48h304    c26.499-0.026,47.974-21.501,48-48V64h72c4.418,0,8-3.582,8-8v-8C479.974,21.501,458.499,0.026,432,0z M48,464    c-17.673,0-32-14.327-32-32h72h216c0.003,11.824,4.393,23.227,12.32,32H48z M384,48v384c0,17.673-14.327,32-32,32    c-17.673,0-32-14.327-32-32v-8c0-4.418-3.582-8-8-8H96V56v-8c0-17.673,14.327-32,32-32h268.32    C388.393,24.773,384.003,36.176,384,48z M400,48c0-17.673,14.327-32,32-32c17.673,0,32,14.327,32,32H400z" fill="#FFFFFF"/>
	</g>
</g>
<g>
	<g>
		<path d="M355.72,282.344c-16.369-16.379-42.917-16.386-59.295-0.017c-0.006,0.006-0.011,0.011-0.017,0.017l-2.344,2.344    l-2.344-2.344c-16.379-16.379-42.933-16.379-59.312,0s-16.379,42.933,0,59.312l56,56c3.124,3.123,8.188,3.123,11.312,0l56-56    C372.098,325.261,372.119,298.718,355.72,282.344z M344.408,330.344l-50.344,50.344l-50.344-50.344    c-10.246-10.016-10.433-26.442-0.417-36.688s26.442-10.433,36.688-0.417c0.141,0.137,0.279,0.276,0.417,0.417l8,8    c3.124,3.123,8.188,3.123,11.312,0l8-8c10.266-9.799,26.422-9.799,36.688,0C354.512,303.798,354.512,320.202,344.408,330.344z" fill="#FFFFFF"/>
	</g>
</g>
<g>
</g>
<g>
</g>
<g>
</g>
<g>
</g>
<g>
</g>
<g>
</g>
<g>
</g>
<g>
</g>
<g>
</g>
<g>
</g>
<g>
</g>
<g>
</g>
<g>
</g>
<g>
</g>
<g>
</g>
</svg>
