<?xml version="1.0" encoding="UTF-8"?>
<!DOCTYPE svg PUBLIC "-//W3C//DTD SVG 1.1//EN" "http://www.w3.org/Graphics/SVG/1.1/DTD/svg11.dtd">
<!-- Creator: CorelDRAW 2017 -->
<svg xmlns="http://www.w3.org/2000/svg" xml:space="preserve" width="295mm" height="70mm" version="1.1" style="shape-rendering:geometricPrecision; text-rendering:geometricPrecision; image-rendering:optimizeQuality; fill-rule:evenodd; clip-rule:evenodd"
viewBox="0 0 29500 7000"
 xmlns:xlink="http://www.w3.org/1999/xlink">
 <defs>
  <style type="text/css">
   <![CDATA[
    .fil0 {fill:#E73672;fill-rule:nonzero}
    .fil1 {fill:white;fill-rule:nonzero}
   ]]>
  </style>
 </defs>
 <g id="Слой_x0020_1">
  <metadata id="CorelCorpID_0Corel-Layer"/>
  <g id="_1951659431744">
   <path class="fil0" d="M6602 665c148,6 265,30 352,72 87,42 151,92 193,150 42,58 64,119 67,183 3,64 -2,125 -14,183 -77,322 -174,694 -289,1119 -116,424 -236,849 -362,1273 -125,424 -243,820 -352,1186 -109,366 -193,656 -251,868 -167,-19 -318,-50 -453,-92 -135,-42 -246,-97 -333,-164 -87,-68 -145,-153 -174,-256 -29,-103 -15,-228 43,-376 51,-135 122,-323 212,-564 90,-241 190,-510 299,-805 109,-296 225,-604 347,-926 122,-322 238,-627 347,-916 -199,219 -426,487 -680,805 -254,318 -506,646 -757,984 -251,338 -482,664 -694,979 -212,315 -376,579 -492,791l-116 482c-186,-84 -347,-272 -482,-564 -135,-292 -248,-625 -338,-998 -90,-373 -164,-754 -222,-1143 -58,-389 -106,-725 -145,-1008 -116,276 -238,606 -366,988 -129,383 -252,762 -371,1138 -119,376 -230,722 -333,1037 -103,315 -186,543 -251,685 -148,-7 -286,-31 -415,-72 -129,-42 -235,-100 -318,-174 -84,-74 -135,-162 -154,-265 -19,-103 3,-219 68,-347 51,-109 124,-267 217,-473 93,-206 198,-437 313,-694 116,-257 239,-530 371,-820 132,-289 262,-572 391,-849 129,-277 252,-535 371,-777 119,-241 227,-449 323,-622 225,45 395,129 511,251 116,122 196,238 241,347 39,96 79,259 121,487 42,228 88,482 140,762 51,280 114,567 188,863 74,296 165,559 275,791 141,-206 307,-437 497,-694 190,-257 387,-516 593,-776 206,-260 412,-516 617,-767 206,-251 394,-473 564,-666 170,-193 315,-346 434,-458 119,-112 195,-169 227,-169l29 29c0,-6 2,-10 5,-10 3,0 5,-3 5,-10zm-3144 4919c0,0 3,3 10,10 0,-6 -3,-10 -10,-10zm6057 -2730c26,135 -19,251 -135,347 51,13 93,26 125,39 32,13 45,26 38,38 -51,238 -116,466 -193,685 -77,219 -142,440 -193,665 -45,180 -43,267 5,260 48,-7 127,-71 236,-193 109,-122 239,-281 391,-477 151,-196 307,-397 468,-603 0,7 10,21 29,43 19,23 35,53 48,92 13,39 15,84 5,135 -10,51 -37,106 -82,164 -129,154 -241,291 -338,410 -96,119 -190,227 -280,323 -90,96 -182,186 -275,270 -93,84 -201,167 -323,251 -64,51 -137,84 -217,96 -81,13 -158,11 -232,-5 -74,-16 -138,-43 -193,-82 -55,-39 -88,-84 -101,-135 -13,-45 -18,-93 -14,-145 3,-51 8,-106 14,-164 -141,135 -296,257 -463,366 -167,109 -325,164 -473,164 -142,0 -254,-29 -338,-87 -84,-58 -138,-132 -164,-222 -64,-219 -61,-476 10,-772 71,-296 195,-577 371,-844 177,-267 402,-492 675,-675 273,-183 580,-272 921,-265 161,0 307,26 439,77 132,51 211,132 236,241zm-1090 463c167,-32 297,-84 391,-154 93,-71 153,-154 178,-251 7,-38 -11,-80 -53,-125 -42,-45 -114,-51 -217,-19 -141,39 -278,153 -410,342 -132,190 -248,399 -347,627 -100,228 -175,452 -227,670 -51,219 -68,379 -48,482 7,51 37,72 92,63 55,-10 116,-39 183,-87 68,-48 138,-106 212,-174 74,-68 140,-137 198,-207 45,-180 96,-363 154,-550 58,-186 112,-360 164,-521 -116,0 -206,-32 -270,-96zm2122 1649c26,71 69,122 130,154 61,32 117,48 169,48 109,7 203,-16 280,-68 77,-51 132,-106 164,-164 64,-84 74,-164 29,-241 -45,-77 -116,-154 -212,-231 -97,-77 -211,-156 -343,-236 -132,-81 -252,-164 -362,-251 -109,-87 -196,-178 -260,-275 -64,-96 -80,-203 -48,-318 71,-251 220,-455 449,-612 228,-158 522,-239 883,-246 322,-6 569,37 743,130 173,93 286,230 337,410 39,148 15,280 -72,396 -87,116 -199,206 -338,270 -138,64 -286,90 -444,77 -158,-13 -288,-77 -391,-193 167,-32 297,-114 391,-246 93,-132 149,-262 169,-391 7,-122 -23,-191 -87,-207 -64,-16 -143,-2 -236,43 -93,45 -188,108 -285,188 -96,81 -167,153 -212,217 -71,90 -95,170 -72,241 22,71 72,137 149,198 77,61 170,122 280,183 109,61 215,127 318,198 103,71 193,151 270,241 77,90 119,193 125,309 19,225 -72,416 -275,574 -203,158 -490,236 -863,236 -174,0 -331,-18 -473,-53 -142,-35 -260,-87 -357,-154 -96,-68 -166,-146 -207,-236 -42,-90 -47,-183 -15,-280 26,-96 85,-177 178,-241 93,-64 199,-105 318,-121 119,-16 241,-5 367,34 125,39 233,112 323,222 -167,32 -304,82 -410,149 -106,68 -143,150 -111,246zm2537 0c26,71 69,122 130,154 61,32 117,48 169,48 109,7 203,-16 280,-68 77,-51 132,-106 164,-164 64,-84 74,-164 29,-241 -45,-77 -116,-154 -212,-231 -97,-77 -211,-156 -343,-236 -132,-81 -252,-164 -362,-251 -109,-87 -196,-178 -260,-275 -64,-96 -80,-203 -48,-318 71,-251 220,-455 449,-612 228,-158 522,-239 882,-246 322,-6 569,37 743,130 173,93 286,230 337,410 39,148 15,280 -72,396 -87,116 -199,206 -338,270 -138,64 -286,90 -444,77 -158,-13 -288,-77 -391,-193 167,-32 297,-114 391,-246 93,-132 149,-262 169,-391 7,-122 -23,-191 -87,-207 -64,-16 -143,-2 -236,43 -93,45 -188,108 -285,188 -96,81 -167,153 -212,217 -71,90 -95,170 -72,241 22,71 72,137 149,198 77,61 170,122 280,183 109,61 215,127 318,198 103,71 193,151 270,241 77,90 119,193 125,309 19,225 -72,416 -275,574 -203,158 -490,236 -863,236 -174,0 -331,-18 -473,-53 -142,-35 -260,-87 -357,-154 -96,-68 -166,-146 -207,-236 -42,-90 -47,-183 -15,-280 26,-96 85,-177 178,-241 93,-64 199,-105 318,-121 119,-16 241,-5 367,34 125,39 233,112 323,222 -167,32 -304,82 -410,149 -106,68 -143,150 -111,246zm4533 -2112c26,135 -19,251 -135,347 51,13 93,26 125,39 32,13 45,26 38,38 -51,238 -116,466 -193,685 -77,219 -142,440 -193,665 -45,180 -43,267 5,260 48,-7 127,-71 236,-193 109,-122 239,-281 391,-477 151,-196 307,-397 468,-603 0,7 10,21 29,43 19,23 35,53 48,92 13,39 15,84 5,135 -10,51 -37,106 -82,164 -129,154 -241,291 -338,410 -96,119 -190,227 -280,323 -90,96 -182,186 -275,270 -93,84 -201,167 -323,251 -64,51 -137,84 -217,96 -81,13 -158,11 -232,-5 -74,-16 -138,-43 -193,-82 -55,-39 -88,-84 -101,-135 -13,-45 -18,-93 -14,-145 3,-51 8,-106 14,-164 -141,135 -296,257 -463,366 -167,109 -325,164 -473,164 -142,0 -254,-29 -338,-87 -84,-58 -138,-132 -164,-222 -64,-219 -61,-476 10,-772 71,-296 195,-577 371,-844 177,-267 402,-492 675,-675 273,-183 580,-272 921,-265 161,0 307,26 439,77 132,51 211,132 236,241zm-1090 463c167,-32 297,-84 391,-154 93,-71 153,-154 178,-251 7,-38 -11,-80 -53,-125 -42,-45 -114,-51 -217,-19 -141,39 -278,153 -410,342 -132,190 -248,399 -347,627 -100,228 -175,452 -227,670 -51,219 -68,379 -48,482 7,51 37,72 92,63 55,-10 116,-39 183,-87 68,-48 138,-106 212,-174 74,-68 140,-137 198,-207 45,-180 96,-363 154,-550 58,-186 112,-360 164,-521 -116,0 -206,-32 -270,-96zm2054 1736c129,-109 270,-244 424,-405 154,-161 328,-357 521,-588 64,-71 122,-145 173,-222 51,-77 106,-151 164,-222 0,7 10,21 29,43 19,23 35,53 48,92 13,39 16,84 10,135 -6,51 -32,106 -77,164l-96 116c-251,315 -487,576 -709,781 -222,206 -426,373 -612,502l-280 907c-84,180 -191,307 -323,381 -132,74 -269,111 -410,111 -141,0 -272,-29 -391,-87 -119,-58 -203,-135 -251,-232 -48,-96 -50,-201 -5,-313 45,-113 164,-220 357,-323 90,-51 172,-95 246,-130 74,-35 146,-72 217,-111 142,-482 281,-969 420,-1461 138,-492 320,-969 545,-1432 38,-77 100,-129 183,-154 84,-26 167,-37 251,-34 84,3 156,18 217,43 61,26 88,51 82,77l-733 2363zm415 -3125c51,-90 135,-151 251,-183 116,-32 228,-29 338,10 109,45 178,112 207,203 29,90 15,180 -43,270 -58,90 -145,151 -260,183 -116,32 -225,29 -328,-10 -109,-45 -178,-113 -207,-203 -29,-90 -14,-180 43,-270zm-1466 4041c-26,6 -58,22 -96,48 -154,96 -248,185 -280,265 -32,81 -35,143 -10,188 26,45 66,64 121,58 55,-6 98,-55 130,-145l135 -415z"/>
   <path class="fil1" d="M22239 1392c-116,-48 -328,-101 -559,-101 -887,0 -1408,617 -1408,1422 0,854 511,1365 1297,1365 284,0 530,-58 651,-116l-77 -535c-116,53 -256,87 -434,87 -410,0 -714,-304 -714,-829 0,-473 260,-834 709,-834 198,0 328,43 419,87l116 -545zm439 -1239l0 3877 714 0 0 -3877 -714 0zm2908 1191l0 1654c0,304 -207,502 -439,502 -294,0 -410,-256 -410,-661l0 -1495 -714 0 0 1601c0,805 347,1138 858,1138 415,0 661,-236 771,-410l15 0 34 357 622 0c-10,-227 -24,-502 -24,-820l0 -1866 -714 0zm2074 -1191l-714 0 0 3105c0,275 -10,579 -19,772l608 0 34 -371 14 0c169,304 424,424 723,424 554,0 1099,-472 1099,-1447 0,-800 -395,-1350 -988,-1350 -342,0 -593,145 -747,381l-10 0 0 -1514zm0 2281c0,-347 236,-579 482,-579 366,0 545,357 545,815 0,521 -198,844 -545,844 -285,0 -482,-251 -482,-554l0 -526z"/>
  </g>
 </g>
</svg>
