<?xml version="1.0" encoding="iso-8859-1"?>
<!-- Generator: Adobe Illustrator 19.0.0, SVG Export Plug-In . SVG Version: 6.00 Build 0)  -->
<svg xmlns="http://www.w3.org/2000/svg" xmlns:xlink="http://www.w3.org/1999/xlink" version="1.1" id="Capa_1" x="0px" y="0px" viewBox="0 0 512 512" style="enable-background:new 0 0 512 512;" xml:space="preserve" width="512px" height="512px">
<g>
	<g>
		<path d="M469.333,149.333H234.667c-17.673,0-32,14.327-32,32V480c0,17.673,14.327,32,32,32h234.667c17.673,0,32-14.327,32-32    V181.333C501.333,163.66,487.006,149.333,469.333,149.333z M480,480c0,5.891-4.776,10.667-10.667,10.667H234.667    c-5.891,0-10.667-4.776-10.667-10.667V181.333c0-5.891,4.776-10.667,10.667-10.667h234.667c5.891,0,10.667,4.776,10.667,10.667    V480z" fill="#FFFFFF"/>
	</g>
</g>
<g>
	<g>
		<rect x="213.333" y="266.667" width="277.333" height="21.333" fill="#FFFFFF"/>
	</g>
</g>
<g>
	<g>
		<path d="M458.667,192H256c-5.891,0-10.667,4.776-10.667,10.667v42.667h21.333v-32H448v32h21.333v-42.667    C469.333,196.776,464.558,192,458.667,192z" fill="#FFFFFF"/>
	</g>
</g>
<g>
	<g>
		<path d="M298.667,309.333H256c-5.891,0-10.667,4.776-10.667,10.667v42.667c0,5.891,4.776,10.667,10.667,10.667h42.667    c5.891,0,10.667-4.776,10.667-10.667V320C309.333,314.109,304.558,309.333,298.667,309.333z M288,352h-21.333v-21.333H288V352z" fill="#FFFFFF"/>
	</g>
</g>
<g>
	<g>
		<path d="M384,309.333h-42.667c-5.891,0-10.667,4.776-10.667,10.667v42.667c0,5.891,4.776,10.667,10.667,10.667H384    c5.891,0,10.667-4.776,10.667-10.667V320C394.667,314.109,389.891,309.333,384,309.333z M373.333,352H352v-21.333h21.333V352z" fill="#FFFFFF"/>
	</g>
</g>
<g>
	<g>
		<path d="M298.667,394.667H256c-5.891,0-10.667,4.776-10.667,10.667V448c0,5.891,4.776,10.667,10.667,10.667h42.667    c5.891,0,10.667-4.776,10.667-10.667v-42.667C309.333,399.442,304.558,394.667,298.667,394.667z M288,437.333h-21.333V416H288    V437.333z" fill="#FFFFFF"/>
	</g>
</g>
<g>
	<g>
		<path d="M384,394.667h-42.667c-5.891,0-10.667,4.776-10.667,10.667V448c0,5.891,4.776,10.667,10.667,10.667H384    c5.891,0,10.667-4.776,10.667-10.667v-42.667C394.667,399.442,389.891,394.667,384,394.667z M373.333,437.333H352V416h21.333    V437.333z" fill="#FFFFFF"/>
	</g>
</g>
<g>
	<g>
		<rect x="416" y="309.333" width="42.667" height="21.333" fill="#FFFFFF"/>
	</g>
</g>
<g>
	<g>
		<rect x="416" y="352" width="42.667" height="21.333" fill="#FFFFFF"/>
	</g>
</g>
<g>
	<g>
		<rect x="416" y="394.667" width="42.667" height="21.333" fill="#FFFFFF"/>
	</g>
</g>
<g>
	<g>
		<rect x="416" y="437.333" width="42.667" height="21.333" fill="#FFFFFF"/>
	</g>
</g>
<g>
	<g>
		<path d="M277.333,0H42.667c-17.673,0-32,14.327-32,32v448c0,17.673,14.327,32,32,32h138.667v-21.333H42.667    C36.776,490.667,32,485.891,32,480V32c0-5.891,4.776-10.667,10.667-10.667h234.667C283.224,21.333,288,26.109,288,32v96h21.333V32    C309.333,14.327,295.006,0,277.333,0z" fill="#FFFFFF"/>
	</g>
</g>
<g>
	<g>
		<path d="M127.115,448c-4.588-26.838-25.61-47.86-52.448-52.448V352H53.333v53.333C53.333,411.224,58.109,416,64,416    c23.564,0,42.667,19.103,42.667,42.667c0,5.891,4.776,10.667,10.667,10.667h53.333V448H127.115z" fill="#FFFFFF"/>
	</g>
</g>
<g>
	<g>
		<path d="M256,96c-23.564,0-42.667-19.103-42.667-42.667c0-5.891-4.776-10.667-10.667-10.667h-85.333    c-5.891,0-10.667,4.776-10.667,10.667C106.667,76.897,87.564,96,64,96c-5.891,0-10.667,4.776-10.667,10.667V160h21.333v-43.552    c26.838-4.588,47.86-25.61,52.448-52.448h65.771c4.588,26.838,25.61,47.86,52.448,52.448v0.885h21.333v-10.667    C266.667,100.776,261.891,96,256,96z" fill="#FFFFFF"/>
	</g>
</g>
<g>
	<g>
		<rect x="53.333" y="448" width="21.333" height="21.333" fill="#FFFFFF"/>
	</g>
</g>
<g>
	<g>
		<rect x="53.333" y="42.667" width="21.333" height="21.333" fill="#FFFFFF"/>
	</g>
</g>
<g>
	<g>
		<rect x="245.333" y="42.667" width="21.333" height="21.333" fill="#FFFFFF"/>
	</g>
</g>
<g>
	<g>
		<path d="M160,170.667v-21.333c-58.91,0-106.667,47.756-106.667,106.667S101.09,362.667,160,362.667v-21.333    c-47.128,0-85.333-38.205-85.333-85.333S112.872,170.667,160,170.667z" fill="#FFFFFF"/>
	</g>
</g>
<g>
</g>
<g>
</g>
<g>
</g>
<g>
</g>
<g>
</g>
<g>
</g>
<g>
</g>
<g>
</g>
<g>
</g>
<g>
</g>
<g>
</g>
<g>
</g>
<g>
</g>
<g>
</g>
<g>
</g>
</svg>
